<svg width="49" height="47" viewBox="0 0 49 47" fill="none" xmlns="http://www.w3.org/2000/svg">
<path d="M36.1237 1.43035L29.9998 7.62705L28.2614 0.196777H20.9216L19.1832 7.62384L13.0592 1.43035C11.324 3.85904 10.2949 6.84205 10.2949 10.0686C10.2949 18.1204 16.669 24.6632 24.5915 24.8202C32.514 24.6632 38.8881 18.1204 38.8881 10.0686C38.8881 6.84205 37.8621 3.85904 36.1237 1.43035Z" fill="black"/>
<path d="M13.4453 44.1076C16.67 45.8807 20.2245 46.8197 23.7982 46.9477H25.3818C30.4931 46.8003 35.5507 45.0077 39.6305 41.6593C45.4166 36.9141 48.4227 30.5355 48.5646 22.7018L48.5953 21.0412L46.9618 21.1964C35.7884 22.2634 28.3496 27.6372 24.7798 37.1935C20.6425 25.8058 9.81796 21.0645 2.39072 21.4486L1.07552 21.5146L0.998828 22.8454C0.619221 29.5771 4.3501 39.1024 13.4376 44.1037L13.4453 44.1076Z" fill="black"/>
</svg>
