<svg width="1920" height="856" viewBox="0 0 1920 856" fill="none" xmlns="http://www.w3.org/2000/svg">
<mask id="mask0_28_851" style="mask-type:luminance" maskUnits="userSpaceOnUse" x="-352" y="-512" width="1285" height="662">
<path d="M932.744 -511.653H-351.967V149.197H932.744V-511.653Z" fill="white"/>
</mask>
<g mask="url(#mask0_28_851)">
<path d="M145.98 44.6563C125.52 7.22991 95.9859 -20.6915 57.2587 -38.5682C20.7448 -55.4251 -17.5426 -59.5043 -56.9564 -52.3923C-88.5435 -46.7 -116.944 -33.6825 -141.904 -13.4129C-170.265 9.61613 -190.971 38.0508 -202.632 72.8377C-207.532 87.4483 -210.652 102.452 -211.965 117.769C-212.845 128.027 -212.998 138.352 -213.505 149.19C-207.852 148.637 -202.865 148.157 -197.878 147.67C-176.391 145.571 -155.378 141.318 -135.024 134C-86.5966 116.583 -51.3163 84.6755 -29.3893 38.0908C-26.9893 32.9918 -24.8293 27.7794 -22.4426 22.3804C-22.0226 23.4202 -21.6757 24.2334 -21.3557 25.0533C-10.0022 54.0212 7.16463 78.9432 30.7316 99.3061C58.9387 123.682 91.4658 138.885 128.373 144.551C140.646 146.437 152.987 146.351 165.34 145.571C166.654 145.484 167.413 145.118 167.513 143.611C168.387 130.694 168.5 117.796 166.48 104.958C163.134 83.6757 156.313 63.5527 145.986 44.6629L145.98 44.6563Z" fill="#F9F9F9"/>
<path d="M943.197 4.93692C942.45 -2.08179 941.763 -9.1138 940.883 -16.1192C938.403 -35.8355 933.836 -55.0586 926.656 -73.6085C916.05 -101.03 900.256 -124.932 878.182 -144.529C860.862 -159.906 841.142 -171.33 819.695 -179.895C818.682 -180.302 817.675 -180.728 816.261 -181.308C855.628 -196.286 886.902 -220.708 909.596 -255.628C932.256 -290.501 943.45 -328.514 939.697 -370.526C938.67 -370.66 937.79 -370.813 936.91 -370.88C925.95 -371.706 914.989 -371.866 904.056 -370.486C880.675 -367.534 858.662 -360.308 838.028 -348.99C801.648 -329.034 774.347 -300.366 756.3 -262.993C746.347 -242.384 740.654 -220.561 738.8 -197.772C737.547 -182.328 738.187 -166.931 740.647 -151.614C743.807 -132.004 749.807 -113.321 758.787 -95.6043C769.414 -74.6416 783.661 -56.4316 800.954 -40.5746C826.088 -17.5189 855.462 -2.77502 888.802 4.23035C905.263 7.6897 921.929 8.72284 938.69 8.90948C940.196 8.92947 941.696 8.90948 943.403 8.90948C943.323 7.34976 943.323 6.13669 943.197 4.93692Z" fill="#F9F9F9"/>
<path d="M782.655 44.6563C762.195 7.22991 732.661 -20.6915 693.934 -38.5682C657.42 -55.4251 619.133 -59.5043 579.719 -52.3923C548.132 -46.7 519.732 -33.6825 494.771 -13.4129C466.411 9.61613 445.704 38.0508 434.044 72.8377C429.144 87.4483 426.024 102.452 424.71 117.769C423.83 128.027 423.677 138.352 423.17 149.19C428.824 148.637 433.811 148.157 438.797 147.67C460.284 145.571 481.298 141.318 501.652 134C550.079 116.583 585.359 84.6755 607.286 38.0908C609.686 32.9918 611.846 27.7794 614.233 22.3804C614.653 23.4202 615 24.2334 615.32 25.0533C626.673 54.0212 643.84 78.9432 667.407 99.3061C695.614 123.682 728.141 138.885 765.048 144.551C777.322 146.437 789.662 146.351 802.016 145.571C803.329 145.484 804.089 145.118 804.189 143.611C805.062 130.694 805.176 117.796 803.156 104.958C799.809 83.6757 792.989 63.5527 782.662 44.6629L782.655 44.6563Z" fill="#F9F9F9"/>
<path d="M473.557 -103.276C488.411 -135.89 492.658 -170.137 488.197 -205.577C485.684 -225.54 480.084 -244.63 471.337 -262.726C455.317 -295.867 431.643 -322.329 400.636 -342.125C378.429 -356.309 354.029 -364.687 328.029 -368.667C317.315 -370.306 306.542 -370.86 295.748 -371.173C286.288 -371.713 276.828 -371.673 267.388 -370.48C244.007 -367.527 221.994 -360.301 201.36 -348.984C164.98 -329.027 137.679 -300.359 119.633 -262.986C109.679 -242.377 103.986 -220.554 102.132 -197.765C100.879 -182.321 101.519 -166.924 103.979 -151.607C107.139 -131.997 113.139 -113.314 122.119 -95.5975C132.746 -74.6347 146.993 -56.4248 164.286 -40.5678C189.42 -17.5121 218.794 -2.76819 252.134 4.23718C267.835 7.53656 283.721 8.62305 299.702 8.883C307.842 9.22293 315.982 9.00961 324.109 7.98981C343.676 5.54361 362.376 0.0712891 380.149 -8.45377C422.657 -28.8433 454.01 -60.3374 473.557 -103.269V-103.276ZM318.569 -106.862C308.422 -91.2383 300.582 -74.9947 295.348 -58.0511C293.748 -63.2835 291.968 -68.4759 289.982 -73.6083C279.375 -101.03 263.581 -124.932 241.508 -144.528C224.187 -159.906 204.467 -171.33 183.02 -179.895C182.007 -180.302 181 -180.728 179.586 -181.308C218.954 -196.285 250.227 -220.708 272.921 -255.628C283.041 -271.198 290.861 -287.395 296.101 -304.292C299.688 -292.541 304.242 -281.096 309.902 -269.998C329.055 -232.465 358.289 -205.504 396.309 -187.8C401.276 -185.487 406.336 -183.394 411.63 -181.082C372.536 -166.144 341.249 -141.782 318.569 -106.855V-106.862Z" fill="#F9F9F9"/>
</g>
<mask id="mask1_28_851" style="mask-type:luminance" maskUnits="userSpaceOnUse" x="932" y="-512" width="1286" height="662">
<path d="M2217.45 -511.653H932.744V149.197H2217.45V-511.653Z" fill="white"/>
</mask>
<g mask="url(#mask1_28_851)">
<path d="M1719.51 44.6563C1739.97 7.22991 1769.5 -20.6915 1808.23 -38.5682C1844.74 -55.4251 1883.03 -59.5043 1922.45 -52.3923C1954.03 -46.7 1982.43 -33.6825 2007.39 -13.4129C2035.75 9.61613 2056.46 38.0508 2068.12 72.8377C2073.02 87.4483 2076.14 102.452 2077.45 117.769C2078.33 128.027 2078.49 138.352 2078.99 149.19C2073.34 148.637 2068.35 148.157 2063.37 147.67C2041.88 145.571 2020.87 141.318 2000.51 134C1952.09 116.583 1916.81 84.6755 1894.88 38.0908C1892.48 32.9918 1890.32 27.7794 1887.93 22.3804C1887.51 23.4202 1887.17 24.2334 1886.85 25.0533C1875.49 54.0212 1858.32 78.9432 1834.76 99.3061C1806.55 123.682 1774.02 138.885 1737.12 144.551C1724.84 146.437 1712.5 146.351 1700.15 145.571C1698.84 145.484 1698.08 145.118 1697.98 143.611C1697.1 130.694 1696.99 117.796 1699.01 104.958C1702.36 83.6757 1709.18 63.5527 1719.5 44.6629L1719.51 44.6563Z" fill="#F9F9F9"/>
<path d="M922.292 4.93692C923.038 -2.08179 923.725 -9.1138 924.605 -16.1192C927.085 -35.8355 931.652 -55.0586 938.832 -73.6085C949.439 -101.03 965.232 -124.932 987.306 -144.529C1004.63 -159.906 1024.35 -171.33 1045.79 -179.895C1046.81 -180.302 1047.81 -180.728 1049.23 -181.308C1009.86 -196.286 978.586 -220.708 955.892 -255.628C933.232 -290.501 922.038 -328.514 925.792 -370.526C926.818 -370.66 927.698 -370.813 928.578 -370.88C939.539 -371.706 950.499 -371.866 961.432 -370.486C984.812 -367.534 1006.83 -360.308 1027.46 -348.99C1063.84 -329.034 1091.14 -300.366 1109.19 -262.993C1119.14 -242.384 1124.83 -220.561 1126.69 -197.772C1127.94 -182.328 1127.3 -166.931 1124.84 -151.614C1121.68 -132.004 1115.68 -113.321 1106.7 -95.6043C1096.07 -74.6416 1081.83 -56.4316 1064.53 -40.5746C1039.4 -17.5189 1010.03 -2.77502 976.686 4.23035C960.226 7.6897 943.559 8.72284 926.798 8.90948C925.292 8.92947 923.792 8.90948 922.085 8.90948C922.165 7.34976 922.165 6.13669 922.292 4.93692Z" fill="#F9F9F9"/>
<path d="M1082.83 44.6563C1103.29 7.22991 1132.83 -20.6915 1171.56 -38.5682C1208.07 -55.4251 1246.36 -59.5043 1285.77 -52.3923C1317.36 -46.7 1345.76 -33.6825 1370.72 -13.4129C1399.08 9.61613 1419.79 38.0508 1431.45 72.8377C1436.35 87.4483 1439.47 102.452 1440.78 117.769C1441.66 128.027 1441.81 138.352 1442.32 149.19C1436.67 148.637 1431.68 148.157 1426.69 147.67C1405.21 145.571 1384.19 141.318 1363.84 134C1315.41 116.583 1280.13 84.6755 1258.2 38.0908C1255.8 32.9918 1253.64 27.7794 1251.26 22.3804C1250.84 23.4202 1250.49 24.2334 1250.17 25.0533C1238.82 54.0212 1221.65 78.9432 1198.08 99.3061C1169.88 123.682 1137.35 138.885 1100.44 144.551C1088.17 146.437 1075.83 146.351 1063.47 145.571C1062.16 145.484 1061.4 145.118 1061.3 143.611C1060.43 130.694 1060.31 117.796 1062.33 104.958C1065.68 83.6757 1072.5 63.5527 1082.83 44.6629L1082.83 44.6563Z" fill="#F9F9F9"/>
<path d="M1391.93 -103.276C1377.08 -135.89 1372.83 -170.137 1377.29 -205.577C1379.81 -225.54 1385.41 -244.63 1394.15 -262.726C1410.17 -295.867 1433.85 -322.329 1464.85 -342.125C1487.06 -356.309 1511.46 -364.687 1537.46 -368.667C1548.17 -370.306 1558.95 -370.86 1569.74 -371.173C1579.2 -371.713 1588.66 -371.673 1598.1 -370.48C1621.48 -367.527 1643.5 -360.301 1664.13 -348.984C1700.51 -329.027 1727.81 -300.359 1745.86 -262.986C1755.81 -242.377 1761.5 -220.554 1763.36 -197.765C1764.61 -182.321 1763.97 -166.924 1761.51 -151.607C1758.35 -131.997 1752.35 -113.314 1743.37 -95.5975C1732.74 -74.6347 1718.5 -56.4248 1701.2 -40.5678C1676.07 -17.5121 1646.7 -2.76819 1613.35 4.23718C1597.65 7.53656 1581.77 8.62305 1565.79 8.883C1557.65 9.22293 1549.51 9.00961 1541.38 7.98981C1521.81 5.54361 1503.11 0.0712891 1485.34 -8.45377C1442.83 -28.8433 1411.48 -60.3374 1391.93 -103.269V-103.276ZM1546.92 -106.862C1557.07 -91.2383 1564.91 -74.9947 1570.14 -58.0511C1571.74 -63.2835 1573.52 -68.4759 1575.51 -73.6083C1586.11 -101.03 1601.91 -124.932 1623.98 -144.528C1641.3 -159.906 1661.02 -171.33 1682.47 -179.895C1683.48 -180.302 1684.49 -180.728 1685.9 -181.308C1646.54 -196.285 1615.26 -220.708 1592.57 -255.628C1582.45 -271.198 1574.63 -287.395 1569.39 -304.292C1565.8 -292.541 1561.25 -281.096 1555.59 -269.998C1536.43 -232.465 1507.2 -205.504 1469.18 -187.8C1464.21 -185.487 1459.15 -183.394 1453.86 -181.082C1492.95 -166.144 1524.24 -141.782 1546.92 -106.855V-106.862Z" fill="#F9F9F9"/>
</g>
<mask id="mask2_28_851" style="mask-type:luminance" maskUnits="userSpaceOnUse" x="-4" y="194" width="1285" height="662">
<path d="M1280.75 194.215H-3.96216V855.065H1280.75V194.215Z" fill="white"/>
</mask>
<g mask="url(#mask2_28_851)">
<path d="M493.985 750.525C473.525 713.098 443.991 685.177 405.264 667.3C368.75 650.443 330.463 646.364 291.049 653.476C259.462 659.168 231.062 672.186 206.101 692.456C177.741 715.485 157.034 743.919 145.374 778.706C140.474 793.317 137.354 808.321 136.04 823.638C135.16 833.896 135.007 844.221 134.5 855.058C140.154 854.505 145.14 854.025 150.127 853.539C171.614 851.439 192.628 847.187 212.982 839.868C261.409 822.451 296.689 790.544 318.616 743.959C321.016 738.86 323.176 733.648 325.563 728.249C325.983 729.289 326.33 730.102 326.65 730.922C338.003 759.89 355.17 784.812 378.737 805.174C406.944 829.55 439.471 844.754 476.378 850.419C488.652 852.306 500.992 852.219 513.346 851.439C514.659 851.353 515.419 850.986 515.519 849.48C516.392 836.562 516.506 823.664 514.486 810.827C511.139 789.544 504.319 769.421 493.992 750.531L493.985 750.525Z" fill="#F9F9F9"/>
<path d="M165.78 313.633C183.967 341.074 207.734 362.444 236.862 377.754C260.995 390.438 286.796 397.377 314.003 398.764C326.749 399.417 339.49 398.904 352.177 397.037C371.017 394.258 389.064 388.939 406.304 380.88C429.358 370.109 449.244 355.032 466.451 336.369C490.592 310.187 505.552 279.433 512.139 244.519C514.672 231.068 515.685 217.484 515.892 203.82C515.939 200.701 515.899 197.574 515.899 194.215C510.505 194.742 505.425 195.242 500.345 195.741C479.025 197.854 458.178 202.094 437.971 209.332C390.67 226.282 355.75 257.123 333.629 302.288C330.676 308.314 328.089 314.513 325.376 320.545C322.143 313.56 319.176 306.527 315.709 299.749C299.929 268.928 277.136 244.472 247.842 226.109C224.202 211.285 198.541 201.914 170.814 198.368C159.721 196.948 148.6 197.181 137.473 197.841C136.14 197.921 135.46 198.334 135.354 199.841C134.467 212.925 134.374 225.983 136.454 238.973C140.78 265.995 150.68 290.85 165.774 313.626L165.78 313.633Z" fill="#F9F9F9"/>
<path d="M184.887 602.592C199.741 569.978 203.988 535.731 199.528 500.291C197.014 480.328 191.414 461.239 182.667 443.142C166.647 410.001 142.974 383.54 111.967 363.743C89.7596 349.559 65.3591 341.181 39.3587 337.202C26.1386 335.175 12.8385 334.809 -0.481644 334.509C-1.58166 334.482 -2.68834 334.509 -3.81502 334.509C-3.88836 335.162 -3.98866 335.482 -3.95532 335.795C-2.74864 346.273 -1.80843 356.785 -0.255079 367.21C3.3183 391.198 10.1782 414.201 21.2384 435.87C40.392 473.403 69.626 500.365 107.646 518.068C112.613 520.381 117.673 522.474 122.967 524.787C83.8728 539.724 52.5855 564.086 29.9052 599.013C7.25152 633.893 -3.9484 671.886 -0.188346 713.812C0.291661 713.918 0.591587 714.025 0.898258 714.051C12.4184 715.158 23.9386 715.291 35.4388 713.858C55.0057 711.412 73.706 705.94 91.4796 697.415C133.987 677.025 165.341 645.531 184.887 602.599V602.592Z" fill="#F9F9F9"/>
<path d="M1291.2 710.805C1290.46 703.787 1289.77 696.755 1288.89 689.749C1286.41 670.033 1281.84 650.81 1274.66 632.26C1264.06 604.838 1248.26 580.936 1226.19 561.34C1208.87 545.963 1189.15 534.538 1167.7 525.973C1166.69 525.567 1165.68 525.14 1164.27 524.56C1203.63 509.583 1234.91 485.161 1257.6 450.241C1280.26 415.367 1291.46 377.354 1287.7 335.342C1286.68 335.209 1285.8 335.055 1284.92 334.989C1273.96 334.162 1262.99 334.002 1252.06 335.382C1228.68 338.335 1206.67 345.56 1186.03 356.878C1149.65 376.834 1122.35 405.502 1104.31 442.875C1094.35 463.485 1088.66 485.307 1086.81 508.096C1085.55 523.54 1086.19 538.937 1088.65 554.255C1091.81 573.864 1097.81 592.547 1106.79 610.264C1117.42 631.227 1131.67 649.437 1148.96 665.294C1174.09 688.349 1203.47 703.093 1236.81 710.099C1253.27 713.558 1269.94 714.591 1286.7 714.778C1288.2 714.798 1289.7 714.778 1291.41 714.778C1291.33 713.218 1291.33 712.005 1291.2 710.805Z" fill="#F9F9F9"/>
<path d="M1130.66 750.525C1110.2 713.098 1080.67 685.177 1041.94 667.3C1005.43 650.443 967.138 646.364 927.725 653.476C896.137 659.168 867.737 672.186 842.777 692.456C814.416 715.485 793.71 743.919 782.049 778.706C777.149 793.317 774.029 808.321 772.716 823.638C771.836 833.896 771.683 844.221 771.176 855.058C776.829 854.505 781.816 854.025 786.803 853.539C808.29 851.439 829.303 847.187 849.657 839.868C898.084 822.451 933.365 790.544 955.292 743.959C957.692 738.86 959.852 733.648 962.238 728.249C962.658 729.289 963.005 730.102 963.325 730.922C974.679 759.89 991.846 784.812 1015.41 805.174C1043.62 829.55 1076.15 844.754 1113.05 850.419C1125.33 852.306 1137.67 852.219 1150.02 851.439C1151.33 851.353 1152.09 850.986 1152.19 849.48C1153.07 836.562 1153.18 823.664 1151.16 810.827C1147.81 789.544 1140.99 769.421 1130.67 750.531L1130.66 750.525Z" fill="#F9F9F9"/>
<path d="M802.456 313.633C820.643 341.074 844.41 362.444 873.537 377.754C897.671 390.438 923.471 397.377 950.678 398.764C963.425 399.417 976.165 398.904 988.852 397.037C1007.69 394.258 1025.74 388.939 1042.98 380.88C1066.03 370.109 1085.92 355.032 1103.13 336.369C1127.27 310.187 1142.23 279.433 1148.81 244.519C1151.35 231.068 1152.36 217.484 1152.57 203.82C1152.61 200.701 1152.57 197.574 1152.57 194.215C1147.18 194.742 1142.1 195.242 1137.02 195.741C1115.7 197.854 1094.85 202.094 1074.65 209.332C1027.35 226.282 992.425 257.123 970.305 302.288C967.352 308.314 964.765 314.513 962.052 320.545C958.818 313.56 955.852 306.527 952.385 299.749C936.605 268.928 913.811 244.472 884.517 226.109C860.877 211.285 835.217 201.914 807.49 198.368C796.396 196.948 785.276 197.181 774.149 197.841C772.816 197.921 772.136 198.334 772.029 199.841C771.142 212.925 771.049 225.983 773.129 238.973C777.456 265.995 787.356 290.85 802.45 313.626L802.456 313.633Z" fill="#F9F9F9"/>
<path d="M821.563 602.592C836.416 569.978 840.663 535.731 836.203 500.291C833.69 480.328 828.089 461.239 819.343 443.142C803.322 410.002 779.649 383.54 748.642 363.743C726.435 349.559 702.034 341.181 676.034 337.202C665.321 335.562 654.547 335.009 643.754 334.696C634.294 334.156 624.833 334.196 615.393 335.389C592.013 338.342 569.999 345.567 549.366 356.885C512.985 376.841 485.685 405.509 467.638 442.882C457.685 463.492 451.991 485.314 450.138 508.103C448.884 523.547 449.524 538.944 451.984 554.261C455.145 573.871 461.145 592.554 470.125 610.271C480.752 631.234 494.998 649.444 512.292 665.301C537.426 688.356 566.799 703.1 600.14 710.106C615.84 713.405 631.727 714.491 647.707 714.751C655.847 715.091 663.987 714.878 672.114 713.858C691.681 711.412 710.381 705.94 728.155 697.415C770.662 677.025 802.016 645.531 821.563 602.599V602.592ZM666.574 599.006C656.427 614.63 648.587 630.874 643.354 647.817C641.754 642.585 639.974 637.392 637.987 632.26C627.38 604.839 611.587 580.936 589.513 561.34C572.193 545.963 552.473 534.538 531.026 525.973C530.012 525.567 529.005 525.14 527.592 524.56C566.959 509.583 598.233 485.161 620.927 450.241C631.047 434.67 638.867 418.473 644.107 401.576C647.694 413.328 652.247 424.772 657.907 435.87C677.061 473.403 706.294 500.365 744.315 518.068C749.282 520.381 754.342 522.474 759.635 524.787C720.541 539.724 689.254 564.086 666.574 599.013V599.006Z" fill="#F9F9F9"/>
</g>
<mask id="mask3_28_851" style="mask-type:luminance" maskUnits="userSpaceOnUse" x="1280" y="194" width="1286" height="662">
<path d="M2565.46 194.215H1280.75V855.065H2565.46V194.215Z" fill="white"/>
</mask>
<g mask="url(#mask3_28_851)">
<path d="M1270.3 710.805C1271.04 703.787 1271.73 696.755 1272.61 689.749C1275.09 670.033 1279.66 650.81 1286.84 632.26C1297.44 604.839 1313.24 580.936 1335.31 561.34C1352.63 545.963 1372.35 534.538 1393.8 525.973C1394.81 525.567 1395.82 525.14 1397.23 524.56C1357.86 509.583 1326.59 485.161 1303.9 450.241C1281.24 415.367 1270.04 377.354 1273.8 335.342C1274.82 335.209 1275.7 335.056 1276.58 334.989C1287.54 334.162 1298.5 334.002 1309.44 335.382C1332.82 338.335 1354.83 345.56 1375.46 356.878C1411.84 376.834 1439.14 405.502 1457.19 442.875C1467.15 463.485 1472.84 485.308 1474.69 508.097C1475.95 523.54 1475.31 538.938 1472.85 554.255C1469.69 573.864 1463.69 592.547 1454.7 610.264C1444.08 631.227 1429.83 649.437 1412.54 665.294C1387.4 688.35 1358.03 703.094 1324.69 710.099C1308.23 713.558 1291.56 714.591 1274.8 714.778C1273.3 714.798 1271.8 714.778 1270.09 714.778C1270.17 713.218 1270.17 712.005 1270.3 710.805Z" fill="#F9F9F9"/>
<path d="M1430.84 750.525C1451.3 713.098 1480.83 685.177 1519.56 667.3C1556.07 650.443 1594.36 646.364 1633.77 653.476C1665.36 659.168 1693.76 672.186 1718.72 692.455C1747.08 715.484 1767.79 743.919 1779.45 778.706C1784.35 793.317 1787.47 808.32 1788.78 823.638C1789.66 833.896 1789.82 844.22 1790.32 855.058C1784.67 854.505 1779.68 854.025 1774.7 853.539C1753.21 851.439 1732.2 847.187 1711.84 839.868C1663.41 822.451 1628.13 790.544 1606.21 743.959C1603.81 738.86 1601.65 733.648 1599.26 728.249C1598.84 729.288 1598.49 730.102 1598.17 730.922C1586.82 759.889 1569.65 784.811 1546.09 805.174C1517.88 829.55 1485.35 844.754 1448.44 850.419C1436.17 852.306 1423.83 852.219 1411.48 851.439C1410.16 851.352 1409.4 850.986 1409.3 849.479C1408.43 836.562 1408.32 823.664 1410.34 810.827C1413.68 789.544 1420.5 769.421 1430.83 750.531L1430.84 750.525Z" fill="#F9F9F9"/>
<path d="M1759.04 313.633C1740.85 341.074 1717.09 362.444 1687.96 377.754C1663.83 390.438 1638.03 397.377 1610.82 398.764C1598.07 399.417 1585.33 398.904 1572.65 397.037C1553.81 394.258 1535.76 388.939 1518.52 380.88C1495.46 370.109 1475.58 355.032 1458.37 336.369C1434.23 310.187 1419.27 279.433 1412.68 244.519C1410.15 231.068 1409.14 217.484 1408.93 203.82C1408.88 200.701 1408.92 197.574 1408.92 194.215C1414.32 194.742 1419.4 195.242 1424.48 195.741C1445.8 197.854 1466.64 202.094 1486.85 209.332C1534.15 226.282 1569.07 257.123 1591.19 302.288C1594.15 308.314 1596.73 314.513 1599.45 320.545C1602.68 313.56 1605.65 306.527 1609.11 299.749C1624.89 268.928 1647.69 244.472 1676.98 226.109C1700.62 211.285 1726.28 201.914 1754.01 198.368C1765.1 196.948 1776.22 197.181 1787.35 197.841C1788.68 197.921 1789.36 198.334 1789.47 199.841C1790.36 212.925 1790.45 225.983 1788.37 238.973C1784.04 265.995 1774.14 290.85 1759.05 313.626L1759.04 313.633Z" fill="#F9F9F9"/>
<path d="M1739.94 602.592C1725.08 569.978 1720.84 535.731 1725.3 500.291C1727.81 480.328 1733.41 461.239 1742.16 443.142C1758.18 410.002 1781.85 383.54 1812.86 363.743C1835.06 349.559 1859.46 341.181 1885.46 337.202C1896.18 335.562 1906.95 335.009 1917.75 334.696C1927.21 334.156 1936.67 334.196 1946.11 335.389C1969.49 338.342 1991.5 345.567 2012.13 356.885C2048.51 376.841 2075.81 405.509 2093.86 442.882C2103.81 463.492 2109.51 485.314 2111.36 508.103C2112.61 523.547 2111.97 538.944 2109.51 554.261C2106.35 573.871 2100.35 592.554 2091.37 610.271C2080.75 631.234 2066.5 649.444 2049.21 665.301C2024.07 688.356 1994.7 703.1 1961.36 710.106C1945.66 713.405 1929.77 714.491 1913.79 714.751C1905.65 715.091 1897.51 714.878 1889.38 713.858C1869.82 711.412 1851.12 705.94 1833.34 697.415C1790.84 677.025 1759.48 645.531 1739.94 602.599V602.592ZM1894.93 599.006C1905.07 614.63 1912.91 630.874 1918.15 647.817C1919.75 642.585 1921.53 637.392 1923.51 632.26C1934.12 604.839 1949.91 580.936 1971.99 561.34C1989.31 545.963 2009.03 534.538 2030.47 525.973C2031.49 525.567 2032.49 525.14 2033.91 524.56C1994.54 509.583 1963.27 485.161 1940.57 450.241C1930.45 434.67 1922.63 418.473 1917.39 401.576C1913.81 413.328 1909.25 424.772 1903.59 435.87C1884.44 473.403 1855.2 500.365 1817.18 518.068C1812.22 520.381 1807.16 522.474 1801.86 524.787C1840.96 539.724 1872.24 564.086 1894.93 599.013V599.006Z" fill="#F9F9F9"/>
</g>
</svg>
