<svg width="148" height="19" viewBox="0 0 148 19" fill="none" xmlns="http://www.w3.org/2000/svg">
<path d="M16.9152 7.60795C17.6545 7.33392 18.2096 6.91704 18.5807 6.35731C18.9518 5.79758 19.1359 5.07167 19.1359 4.18252V4.10089C19.1359 2.92604 18.6625 2.01648 17.7158 1.3722C16.7691 0.730844 15.501 0.401417 13.9115 0.386841H0.897461V15.5695H12.9678C15.3666 15.555 17.2074 15.2314 18.4901 14.5959C19.7728 13.9603 20.4127 12.87 20.4127 11.3249V11.2433C20.4127 10.1909 20.1176 9.38044 19.5274 8.81196C18.9372 8.24348 18.0665 7.84409 16.9152 7.61087V7.60795ZM5.64845 3.52658H11.5302C12.1876 3.52658 12.6873 3.5499 13.032 3.59946C13.3739 3.64611 13.6544 3.76855 13.8765 3.95804C14.0956 4.15045 14.2066 4.4653 14.2066 4.90259C14.2066 5.38069 14.0927 5.7247 13.8677 5.92877C13.6427 6.13284 13.3681 6.25527 13.0467 6.28734C12.7252 6.32232 12.2198 6.33981 11.536 6.33981H8.45053C7.99764 6.32524 7.06556 6.31941 5.65429 6.31941V3.5295L5.64845 3.52658ZM14.8611 11.6602C14.6274 11.8847 14.3206 12.0217 13.9349 12.0712C13.5521 12.1179 12.9765 12.1441 12.2081 12.1441H11.4484C11.1474 12.1441 10.5894 12.1412 9.77122 12.1325C8.95602 12.1266 7.58273 12.1208 5.64845 12.1208V9.08308H12.2081C12.9765 9.08308 13.5521 9.1064 13.9349 9.15596C14.3177 9.20552 14.6274 9.33379 14.8611 9.54661C15.0949 9.75942 15.2118 10.1034 15.2118 10.5815C15.2118 11.0596 15.0949 11.4328 14.8611 11.6573V11.6602Z" fill="black"/>
<path d="M28.2262 5.89087H21.5059V9.17345H28.2262V5.89087Z" fill="black"/>
<path d="M44.8893 1.09522C43.3758 0.404301 41.6782 0.0603027 39.7994 0.0603027C37.9206 0.0603027 36.3224 0.407216 34.7913 1.09522C33.2632 1.78614 32.0506 2.73943 31.1506 3.95801C30.2536 5.17659 29.8036 6.53511 29.8036 8.03939C29.8036 9.54366 30.2536 10.8818 31.1506 12.0916C32.0477 13.3014 33.2661 14.2518 34.8001 14.9427C36.3341 15.6337 38.0083 15.9777 39.8169 15.9777C41.6256 15.9777 43.3875 15.6307 44.8952 14.9427C46.4029 14.2518 47.5862 13.3044 48.4424 12.1004C49.2985 10.8963 49.728 9.54366 49.728 8.03939C49.728 6.53511 49.2985 5.15619 48.4424 3.94635C47.5862 2.73651 46.4 1.78614 44.8864 1.09522H44.8893ZM43.7469 10.2346C43.3086 10.8497 42.7359 11.322 42.0288 11.6514C41.3217 11.9808 40.5854 12.1441 39.8169 12.1441C39.0485 12.1441 38.2917 11.9808 37.5846 11.6514C36.8775 11.322 36.3048 10.8526 35.8666 10.2346C35.4283 9.61946 35.2091 8.88773 35.2091 8.03939C35.2091 7.19104 35.4254 6.4768 35.8578 5.85294C36.2902 5.23199 36.8542 4.75679 37.5554 4.42737C38.2537 4.09794 38.9959 3.93469 39.776 3.93469C40.5562 3.93469 41.2837 4.09503 41.9967 4.41571C42.7096 4.73639 43.2881 5.20866 43.7352 5.83253C44.1793 6.45348 44.4043 7.19104 44.4043 8.03939C44.4043 8.88773 44.1852 9.61946 43.7469 10.2346Z" fill="black"/>
<path d="M64.4335 8.20267C64.4335 9.05101 64.2319 9.74776 63.8258 10.2958C63.4226 10.8439 62.9171 11.2375 62.3152 11.4765C61.7103 11.7156 61.1026 11.8351 60.4861 11.8351C59.3056 11.8351 58.2888 11.5407 57.4327 10.9518C56.5766 10.3629 56.1471 9.44749 56.1471 8.20267V0.386841H50.8818V8.20267C50.8964 9.68071 51.323 11.0101 52.1675 12.1937C53.0119 13.3773 54.1573 14.3043 55.6124 14.9748C57.0645 15.6454 58.6833 15.9806 60.4656 15.9806C62.1252 15.9806 63.6534 15.6424 65.05 14.9661C66.4496 14.2898 67.5599 13.3569 68.381 12.1645C69.202 10.9751 69.614 9.6399 69.614 8.16477V0.389754H64.4335V8.20559V8.20267Z" fill="black"/>
<path d="M86.199 1.09522C84.6854 0.404301 82.9878 0.0603027 81.109 0.0603027C79.2303 0.0603027 77.5823 0.407216 75.9987 1.09522C74.415 1.78614 73.1498 2.73943 72.206 3.95801C71.2594 5.1766 70.786 6.53511 70.786 8.03939C70.786 9.39207 71.1863 10.6427 71.9898 11.7826C72.7904 12.9254 73.8803 13.8583 75.2594 14.5842C76.6356 15.3101 78.1404 15.7532 79.7737 15.9164V18.5023H87.6687L84.6883 15.4879C85.9506 15.1322 87.0609 14.5929 88.0193 13.867C88.9777 13.1411 89.7227 12.2811 90.2516 11.2812C90.7805 10.2841 91.0434 9.20258 91.0434 8.03939C91.0434 6.52053 90.6139 5.15619 89.7578 3.94635C88.9017 2.73651 87.7154 1.78614 86.2019 1.09522H86.199ZM85.0682 10.2142C84.6357 10.8293 84.066 11.3016 83.3618 11.631C82.6547 11.9604 81.9125 12.1237 81.1295 12.1237C80.3464 12.1237 79.5926 11.9604 78.827 11.631C78.0586 11.3016 77.4275 10.8264 76.9366 10.2054C76.4428 9.58448 76.1973 8.8615 76.1973 8.04231C76.1973 7.22312 76.4428 6.47972 76.9366 5.85586C77.4304 5.2349 78.0615 4.75971 78.827 4.43029C79.5955 4.10086 80.361 3.9376 81.1295 3.9376C81.8979 3.9376 82.6547 4.10086 83.3618 4.43029C84.0689 4.75971 84.6357 5.2349 85.0682 5.85586C85.5006 6.47972 85.7168 7.20562 85.7168 8.04231C85.7168 8.87899 85.5006 9.60197 85.0682 10.2171V10.2142Z" fill="black"/>
<path d="M105.764 8.20267C105.764 9.05101 105.562 9.74776 105.156 10.2958C104.753 10.8439 104.247 11.2375 103.645 11.4765C103.04 11.7156 102.433 11.8351 101.816 11.8351C100.636 11.8351 99.6189 11.5407 98.7628 10.9518C97.9067 10.3629 97.4772 9.44749 97.4772 8.20267V0.386841H92.2119V8.20267C92.2265 9.68071 92.6531 11.0101 93.4976 12.1937C94.342 13.3773 95.4873 14.3043 96.9424 14.9748C98.3946 15.6454 100.013 15.9806 101.796 15.9806C103.455 15.9806 104.983 15.6424 106.38 14.9661C107.78 14.2898 108.89 13.3569 109.711 12.1645C110.532 10.9751 110.944 9.6399 110.944 8.16477V0.389754H105.764V8.20559V8.20267Z" fill="black"/>
<path d="M128.856 4.05716L128.835 0.386841H112.528V15.5666H128.835V11.8963L117.609 11.9779V9.66031H127.109V6.06869H117.609V4.05716H128.856Z" fill="black"/>
<path d="M129.925 0.386841V4.48862V4.50902H136.423V15.5666H141.481V4.50902H147.897V0.386841H129.925Z" fill="black"/>
</svg>
