<svg width="59" height="59" viewBox="0 0 59 59" fill="none" xmlns="http://www.w3.org/2000/svg">
<path d="M21.4565 16.1904C23.7345 17.4254 26.2454 18.0794 28.7699 18.1686H29.8885C33.4991 18.0659 37.0718 16.8174 39.9538 14.4851C44.0411 11.18 46.1647 6.73704 46.2649 1.28069L46.2866 0.124023L45.1327 0.232123C37.2398 0.975311 31.985 4.71827 29.4633 11.3745C26.5461 3.4454 18.8996 0.145643 13.653 0.410489L12.7239 0.456431L12.6697 1.38339C12.4016 6.07223 15.0371 12.7069 21.4565 16.1904Z" fill="black"/>
<path d="M37.4862 42.3722C35.2083 41.1371 32.6974 40.4831 30.1729 40.3939H29.0543C25.4437 40.4966 21.871 41.7452 18.989 44.0774C14.9016 47.3826 12.7781 51.8255 12.6779 57.2819L12.6562 58.4385L13.8101 58.3304C21.703 57.5872 26.9578 53.8443 29.4795 47.188C32.4021 55.1198 40.0486 58.4223 45.2952 58.1548L46.2243 58.1088L46.2785 57.1819C46.5466 52.493 43.9111 45.8584 37.4917 42.3749L37.4862 42.3722Z" fill="black"/>
<path d="M42.4376 21.2873C41.1998 23.5601 40.5443 26.0654 40.4549 28.5841V29.7002C40.5578 33.3027 41.8092 36.8673 44.1468 39.7427C47.4594 43.8208 51.9124 45.9396 57.3812 46.0395L58.5404 46.0612L58.4321 44.9099C57.6872 37.0348 53.9358 31.792 47.2644 29.2759C55.2142 26.3599 58.5242 18.7308 58.256 13.496L58.21 12.5691L57.2809 12.515C52.5815 12.2475 45.9318 14.877 42.4403 21.2819L42.4376 21.2873Z" fill="black"/>
<path d="M11.6811 29.2867C3.73125 32.2027 0.421304 39.8318 0.689458 45.0666L0.735505 45.9935L1.66457 46.0476C6.36405 46.3151 13.0137 43.6856 16.5052 37.2807C17.743 35.0079 18.3985 32.5026 18.4879 29.9839V28.8678C18.385 25.2653 17.1336 21.7007 14.796 18.8253C11.4834 14.7472 7.03037 12.6284 1.56164 12.5285L0.402344 12.5068L0.510687 13.6581C1.25556 21.5332 5.00702 26.776 11.6784 29.2921L11.6811 29.2867Z" fill="black"/>
</svg>
