<svg width="1920" height="1736" viewBox="0 0 1920 1736" fill="none" xmlns="http://www.w3.org/2000/svg">
<g opacity="0.4">
<path d="M191.936 8.56941C192.019 59.8099 212.006 107.96 248.244 144.198C284.481 180.435 332.638 200.422 383.872 200.505H384.512C435.746 200.422 483.903 180.435 520.14 144.198C553.844 110.494 573.486 66.4701 576.128 19.2539C578.777 66.4701 598.412 110.487 632.116 144.198C665.82 177.902 709.837 197.543 757.053 200.186C709.837 202.834 665.82 222.469 632.116 256.173C595.801 292.488 575.808 340.766 575.808 392.122V392.441H576.128C627.484 392.441 675.762 372.442 712.076 336.134C745.78 302.43 765.422 258.413 768.064 211.196C770.713 258.413 790.348 302.43 824.052 336.134C860.366 372.448 908.644 392.441 960 392.441H960.32V392.122C960.32 340.766 940.32 292.488 904.012 256.173C867.775 219.936 819.618 199.949 768.384 199.866C768.301 148.625 748.314 100.475 712.076 64.2373C678.372 30.5333 634.355 10.8918 587.139 8.24953C634.355 5.6008 678.372 -14.0342 712.076 -47.7382C748.391 -84.0525 768.384 -132.331 768.384 -183.687V-184H768.064C716.708 -184 668.43 -164 632.116 -127.692C595.878 -91.4548 575.891 -43.2981 575.808 7.93604C524.574 8.0256 476.417 28.0125 440.18 64.2437C406.476 97.9476 386.834 141.965 384.192 189.181C381.543 141.965 361.908 97.9476 328.204 64.2437C294.5 30.5397 250.483 10.8983 203.267 8.25592C250.483 5.60721 294.5 -14.0278 328.204 -47.7318C364.518 -84.0461 384.512 -132.324 384.512 -183.68V-184H384.192C332.836 -184 284.558 -164 248.244 -127.692C214.54 -93.9884 194.898 -49.9647 192.256 -2.74841C189.607 -49.9647 169.972 -93.982 136.268 -127.692C99.9539 -164 51.6756 -184 0.319893 -184H0V-183.68C0 -132.324 19.9997 -84.0461 56.3076 -47.7318C92.5452 -11.4943 140.702 8.49265 191.936 8.57582V8.56941ZM576.448 391.808C576.627 286.41 662.346 200.691 767.744 200.512C767.565 305.91 681.846 391.629 576.448 391.808ZM903.558 256.634C939.674 292.75 959.597 340.74 959.68 391.808C854.282 391.629 768.563 305.91 768.384 200.512C819.445 200.595 867.442 220.518 903.558 256.634ZM767.744 199.872C716.683 199.789 668.686 179.866 632.57 143.75C596.454 107.634 576.531 59.6436 576.448 8.57582C681.846 8.75496 767.565 94.4736 767.744 199.872ZM767.744 -183.36C767.565 -77.9617 681.846 7.7569 576.448 7.93604C576.627 -97.4624 662.346 -183.181 767.744 -183.36ZM575.808 8.57582C575.629 113.974 489.91 199.693 384.512 199.872C384.691 94.4736 470.41 8.75496 575.808 8.57582ZM383.872 199.872C332.811 199.789 284.814 179.866 248.698 143.75C212.582 107.634 192.659 59.6436 192.576 8.57582C297.974 8.75496 383.693 94.4736 383.872 199.872ZM383.872 -183.36C383.693 -77.9617 297.974 7.7569 192.576 7.93604C192.755 -97.4624 278.474 -183.181 383.872 -183.36ZM135.814 -127.238C171.93 -91.1222 191.853 -43.1317 191.936 7.93604C86.5376 7.7569 0.818927 -77.9617 0.639787 -183.36C51.7012 -183.277 99.698 -163.354 135.814 -127.238Z" fill="white"/>
<path d="M383.872 8.57581H384.192C435.548 8.57581 483.826 -11.4239 520.14 -47.7318C556.455 -84.0397 576.448 -132.324 576.448 -183.68V-184H576.128C524.772 -184 476.494 -164 440.18 -127.692C403.865 -91.3845 383.872 -43.0998 383.872 8.25591V8.57581ZM575.808 -183.36C575.629 -77.9617 489.91 7.75688 384.512 7.93602C384.691 -97.4624 470.41 -183.181 575.808 -183.36Z" fill="white"/>
<path d="M959.68 8.25591V8.57581H960C1011.36 8.57581 1059.63 -11.4239 1095.95 -47.7318C1129.65 -81.4358 1149.29 -125.453 1151.94 -172.669C1154.58 -125.453 1174.22 -81.4358 1207.92 -47.7318C1244.16 -11.4943 1292.32 8.49263 1343.55 8.57581H1344.19C1395.43 8.49263 1443.58 -11.4943 1479.82 -47.7318C1516.13 -84.0461 1536.13 -132.324 1536.13 -183.68V-184H1535.81C1484.45 -184 1436.17 -164 1399.86 -127.692C1366.16 -93.9884 1346.51 -49.9647 1343.87 -2.74843C1341.22 -49.9647 1321.59 -93.982 1287.88 -127.692C1251.65 -163.923 1203.49 -183.91 1152.26 -184H1151.62C1100.38 -183.917 1052.22 -163.93 1015.99 -127.692C979.673 -91.3781 959.68 -43.0998 959.68 8.25591ZM1535.49 -183.36C1535.31 -77.9617 1449.59 7.75688 1344.19 7.93602C1344.37 -97.4624 1430.09 -183.181 1535.49 -183.36ZM1287.43 -127.238C1323.55 -91.1222 1343.47 -43.1318 1343.55 7.93602C1238.15 7.75688 1152.43 -77.9617 1152.26 -183.36C1203.32 -183.277 1251.31 -163.354 1287.43 -127.238ZM1151.62 -183.36C1151.44 -77.9617 1065.72 7.75688 960.319 7.93602C960.499 -97.4624 1046.22 -183.181 1151.62 -183.36Z" fill="white"/>
<path d="M1920 -183.68V-184H1919.68C1868.32 -184 1820.05 -164 1783.73 -127.692C1747.42 -91.3845 1727.51 -43.2981 1727.42 7.93602C1676.19 8.02559 1628.03 28.0125 1591.8 64.2437C1555.56 100.475 1535.57 148.638 1535.49 199.872C1484.25 199.955 1436.1 219.942 1399.86 256.18C1366.16 289.884 1346.51 333.907 1343.87 381.124C1341.22 333.907 1321.59 289.89 1287.88 256.18C1251.57 219.865 1203.29 199.872 1151.94 199.872H1151.62V200.192C1151.62 251.548 1171.62 299.826 1207.92 336.14C1241.63 369.844 1285.65 389.486 1332.86 392.128C1285.65 394.777 1241.63 414.412 1207.92 448.116C1171.69 484.353 1151.7 532.51 1151.62 583.744C1100.38 583.834 1052.23 603.821 1015.99 640.052C979.673 676.366 959.68 724.644 959.68 776V776.32H960C1011.36 776.32 1059.63 756.32 1095.95 720.012C1129.65 686.308 1149.29 642.291 1151.94 595.075C1154.58 642.291 1174.22 686.308 1207.92 720.012C1241.63 753.716 1285.65 773.358 1332.86 776C1285.65 778.649 1241.63 798.284 1207.92 831.988C1171.69 868.225 1151.7 916.382 1151.62 967.616V968.256C1151.7 1019.49 1171.69 1067.65 1207.92 1103.88C1241.63 1137.59 1285.65 1157.23 1332.86 1159.87C1285.65 1162.52 1241.63 1182.16 1207.92 1215.86C1171.69 1252.1 1151.7 1300.25 1151.62 1351.49V1352.13C1151.7 1403.36 1171.69 1451.52 1207.92 1487.76C1241.63 1521.46 1285.65 1541.1 1332.86 1543.74C1285.65 1546.39 1241.63 1566.03 1207.92 1599.73C1174.22 1633.44 1154.58 1677.45 1151.94 1724.67C1149.29 1677.45 1129.65 1633.44 1095.95 1599.73C1059.71 1563.49 1011.55 1543.51 960.32 1543.42C960.237 1492.18 940.25 1444.03 904.012 1407.8C867.775 1371.56 819.618 1351.57 768.384 1351.49C768.301 1300.25 748.314 1252.1 712.076 1215.86C678.372 1182.16 634.355 1162.51 587.139 1159.87C634.355 1157.22 678.372 1137.59 712.076 1103.88C745.371 1070.59 764.935 1027.24 767.962 980.681C770.169 1028.63 789.887 1073.4 824.058 1107.57C860.372 1143.88 908.651 1163.88 960.006 1163.88H960.326V1163.56C960.326 1112.2 940.327 1063.92 904.019 1027.61C867.775 991.365 819.599 971.372 768.352 971.301C768.371 970.284 768.39 969.273 768.39 968.25V967.61C768.307 916.376 748.32 868.219 712.083 831.981C678.379 798.277 634.361 778.636 587.145 775.994C634.361 773.345 678.379 753.71 712.083 720.006C748.397 683.692 768.39 635.413 768.39 584.058V583.738H768.07C716.715 583.738 668.436 603.737 632.122 640.045C598.418 673.749 578.777 717.773 576.134 764.989C573.486 717.773 553.851 673.756 520.147 640.045C483.909 603.808 435.752 583.821 384.518 583.738C384.435 532.504 364.448 484.347 328.211 448.109C291.973 411.872 243.816 391.885 192.582 391.802C192.499 340.561 172.512 292.411 136.275 256.173C99.9603 219.859 51.682 199.866 0.326291 199.866H0V200.186C0 251.541 19.9997 299.819 56.3076 336.134C90.0116 369.838 134.029 389.479 181.245 392.122C134.029 394.77 90.0116 414.405 56.3076 448.109C20.0765 484.353 0.0895701 532.51 0 583.744V584.384C0.0831723 635.618 20.0701 683.775 56.3076 720.012C90.0116 753.716 134.029 773.358 181.245 776C134.029 778.649 90.0116 798.284 56.3076 831.988C19.9997 868.302 0 916.58 0 967.936V968.256H0.319893C51.6756 968.256 99.9539 948.256 136.268 911.948C172.506 875.711 192.493 827.554 192.576 776.32V775.68C192.493 724.446 172.506 676.289 136.268 640.052C102.564 606.348 58.5469 586.706 11.3306 584.064C58.5469 581.415 102.564 561.78 136.268 528.076C169.972 494.372 189.614 450.349 192.256 403.132C194.905 450.349 214.54 494.366 248.244 528.076C284.481 564.314 332.638 584.301 383.872 584.384C383.955 635.618 403.942 683.775 440.18 720.012C476.417 756.25 524.574 776.237 575.808 776.32C575.891 827.56 595.878 875.711 632.116 911.948C665.82 945.652 709.837 965.294 757.053 967.936C709.837 970.585 665.82 990.22 632.116 1023.92C598.412 1057.63 578.77 1101.65 576.128 1148.87C573.479 1101.65 553.844 1057.63 520.14 1023.92C483.826 987.609 435.548 967.616 384.192 967.616H383.872V967.936C383.872 1019.29 403.872 1067.57 440.18 1103.88C476.417 1140.12 524.574 1160.11 575.808 1160.19C575.891 1211.43 595.878 1259.58 632.116 1295.82C665.82 1329.52 709.837 1349.17 757.053 1351.81C709.837 1354.46 665.82 1374.09 632.116 1407.8C598.412 1441.5 578.77 1485.52 576.128 1532.74C573.479 1485.52 553.844 1441.51 520.14 1407.8C483.826 1371.48 435.548 1351.49 384.192 1351.49H383.872V1351.81C383.872 1403.16 403.872 1451.44 440.18 1487.76C473.884 1521.46 517.901 1541.1 565.117 1543.74C517.901 1546.39 473.884 1566.03 440.18 1599.73C406.476 1633.44 386.834 1677.45 384.192 1724.67C381.543 1677.45 361.908 1633.44 328.204 1599.73C291.967 1563.49 243.81 1543.51 192.576 1543.42C192.493 1492.19 172.506 1444.03 136.268 1407.8C102.564 1374.09 58.5469 1354.45 11.3306 1351.81C58.5469 1349.16 102.564 1329.52 136.268 1295.82C172.582 1259.51 192.576 1211.23 192.576 1159.87V1159.55H192.256C140.9 1159.55 92.6219 1179.55 56.3076 1215.86C20.0765 1252.1 0.0895701 1300.25 0 1351.49V1352.13C0.0831723 1403.36 20.0701 1451.52 56.3076 1487.76C92.5452 1523.99 140.702 1543.98 191.936 1544.06C192.019 1595.3 212.006 1643.45 248.244 1679.69C284.481 1715.93 332.638 1735.92 383.872 1736H384.512C435.746 1735.92 483.903 1715.93 520.14 1679.69C556.378 1643.45 576.365 1595.3 576.448 1544.06C627.682 1543.97 675.839 1523.99 712.076 1487.76C745.78 1454.05 765.422 1410.04 768.064 1362.82C770.713 1410.04 790.348 1454.05 824.052 1487.76C857.756 1521.46 901.773 1541.1 948.989 1543.74C901.773 1546.39 857.756 1566.03 824.052 1599.73C787.737 1636.05 767.744 1684.32 767.744 1735.68V1736H768.064C819.42 1736 867.698 1716 904.012 1679.69C937.716 1645.99 957.358 1601.96 960 1554.75C962.649 1601.96 982.284 1645.98 1015.99 1679.69C1052.23 1715.93 1100.38 1735.92 1151.62 1736H1152.26C1203.49 1735.92 1251.65 1715.93 1287.88 1679.69C1321.59 1645.99 1341.23 1601.96 1343.87 1554.75C1346.52 1601.96 1366.16 1645.98 1399.86 1679.69C1436.1 1715.93 1484.25 1735.92 1535.49 1736H1536.13C1587.36 1735.92 1635.52 1715.93 1671.76 1679.69C1705.46 1645.99 1725.1 1601.97 1727.74 1554.75C1730.39 1601.97 1750.03 1645.99 1783.73 1679.69C1820.05 1716.01 1868.32 1736 1919.68 1736H1920V1735.68C1920 1684.32 1900 1636.05 1863.69 1599.73C1827.38 1563.42 1779.3 1543.51 1728.06 1543.42C1727.98 1492.18 1707.99 1444.03 1671.76 1407.8C1638.05 1374.09 1594.04 1354.45 1546.82 1351.81C1594.04 1349.16 1638.05 1329.52 1671.76 1295.82C1705.46 1262.12 1725.1 1218.1 1727.74 1170.88C1730.39 1218.1 1750.03 1262.12 1783.73 1295.82C1820.05 1332.13 1868.32 1352.13 1919.68 1352.13H1920V1351.81C1920 1300.45 1900 1252.17 1863.69 1215.86C1829.99 1182.16 1785.97 1162.51 1738.75 1159.87C1785.97 1157.22 1829.99 1137.59 1863.69 1103.88C1899.93 1067.65 1919.92 1019.49 1920 968.256V967.616C1919.92 916.382 1899.93 868.225 1863.69 831.988C1829.99 798.284 1785.97 778.642 1738.75 776C1785.97 773.351 1829.99 753.716 1863.69 720.012C1900.01 683.698 1920 635.42 1920 584.064V583.744H1919.68C1868.32 583.744 1820.05 603.744 1783.73 640.052C1750.03 673.756 1730.39 717.773 1727.74 764.989C1725.1 717.773 1705.46 673.756 1671.76 640.052C1635.44 603.737 1587.16 583.744 1535.81 583.744H1535.49V584.064C1535.49 635.42 1555.49 683.698 1591.8 720.012C1628.1 756.327 1676.19 776.237 1727.42 776.32C1727.51 827.56 1747.49 875.711 1783.73 911.948C1817.44 945.652 1861.45 965.294 1908.67 967.936C1861.45 970.585 1817.44 990.22 1783.73 1023.92C1747.49 1060.16 1727.51 1108.32 1727.42 1159.55C1676.19 1159.64 1628.03 1179.63 1591.8 1215.86C1558.09 1249.56 1538.45 1293.58 1535.81 1340.8C1533.16 1293.58 1513.52 1249.56 1479.82 1215.86C1443.58 1179.62 1395.43 1159.64 1344.19 1159.55C1344.11 1108.31 1324.12 1060.16 1287.88 1023.92C1254.18 990.22 1210.16 970.578 1162.95 967.936C1210.16 965.287 1254.18 945.652 1287.88 911.948C1321.59 878.244 1341.23 834.221 1343.87 787.004C1346.52 834.221 1366.16 878.238 1399.86 911.948C1436.17 948.263 1484.45 968.256 1535.81 968.256H1536.13V967.936C1536.13 916.58 1516.13 868.302 1479.82 831.988C1443.58 795.75 1395.43 775.763 1344.19 775.68C1344.11 724.44 1324.12 676.289 1287.88 640.052C1254.18 606.348 1210.16 586.706 1162.95 584.064C1210.16 581.415 1254.18 561.78 1287.88 528.076C1324.12 491.839 1344.11 443.682 1344.19 392.448C1395.43 392.358 1443.58 372.371 1479.82 336.14C1516.06 299.903 1536.04 251.746 1536.13 200.512C1587.36 200.429 1635.52 180.442 1671.76 144.204C1705.46 110.5 1725.1 66.4829 1727.74 19.2666C1730.39 66.4829 1750.03 110.5 1783.73 144.204C1817.44 177.908 1861.45 197.55 1908.67 200.192C1861.45 202.841 1817.44 222.476 1783.73 256.18C1747.42 292.494 1727.42 340.772 1727.42 392.128V392.448H1727.74C1779.1 392.448 1827.38 372.448 1863.69 336.14C1900.01 299.832 1919.92 251.746 1920 200.512V199.872C1919.92 148.638 1899.93 100.481 1863.69 64.2437C1829.99 30.5397 1785.97 10.8982 1738.75 8.25591C1785.97 5.60719 1829.99 -14.0279 1863.69 -47.7318C1900.01 -84.0461 1920 -132.324 1920 -183.68ZM903.558 1028.06C939.674 1064.18 959.597 1112.17 959.68 1163.24C854.282 1163.06 768.563 1077.34 768.384 971.941C819.445 972.024 867.442 991.947 903.558 1028.06ZM1152.26 200.512C1203.32 200.595 1251.31 220.518 1287.43 256.634C1323.55 292.75 1343.47 340.74 1343.55 391.808C1238.15 391.629 1152.44 305.91 1152.26 200.512ZM960.32 775.68C960.499 670.282 1046.22 584.563 1151.62 584.384C1151.44 689.782 1065.72 775.501 960.32 775.68ZM1535.49 1352.13C1535.58 1403.36 1555.56 1451.52 1591.8 1487.76C1625.51 1521.46 1669.52 1541.1 1716.74 1543.74C1669.52 1546.39 1625.51 1566.03 1591.8 1599.73C1558.1 1633.44 1538.46 1677.45 1535.81 1724.67C1533.17 1677.45 1513.53 1633.44 1479.83 1599.73C1443.59 1563.49 1395.43 1543.51 1344.2 1543.42C1344.12 1492.18 1324.13 1444.03 1287.89 1407.8C1254.19 1374.09 1210.17 1354.45 1162.95 1351.81C1210.17 1349.16 1254.19 1329.52 1287.89 1295.82C1321.59 1262.12 1341.24 1218.09 1343.88 1170.88C1346.53 1218.09 1366.16 1262.11 1399.87 1295.82C1436.1 1332.06 1484.26 1352.04 1535.49 1352.13ZM1343.55 1160.2C1343.37 1265.6 1257.65 1351.32 1152.26 1351.49C1152.44 1246.1 1238.15 1160.38 1343.55 1160.2ZM1152.26 1352.13C1203.32 1352.22 1251.31 1372.14 1287.43 1408.26C1323.55 1444.37 1343.47 1492.36 1343.55 1543.43C1238.15 1543.25 1152.44 1457.53 1152.26 1352.13ZM767.744 584.39C767.565 689.789 681.846 775.507 576.448 775.686C576.627 670.288 662.346 584.569 767.744 584.39ZM0.639787 200.512C51.7012 200.595 99.698 220.518 135.814 256.634C171.93 292.75 191.853 340.74 191.936 391.808C86.5376 391.629 0.818927 305.91 0.639787 200.512ZM0.639787 967.616C0.818927 862.218 86.5376 776.499 191.936 776.32C191.757 881.718 106.038 967.437 0.639787 967.616ZM191.936 775.68C86.5376 775.501 0.818927 689.782 0.639787 584.384C51.7012 584.467 99.698 604.39 135.814 640.506C171.93 676.622 191.853 724.612 191.936 775.68ZM0.639787 583.744C0.818927 478.346 86.5376 392.627 191.936 392.448C191.757 497.846 106.038 583.565 0.639787 583.744ZM248.698 527.622C212.582 491.506 192.659 443.516 192.576 392.448C297.974 392.627 383.693 478.346 383.872 583.744C332.811 583.661 284.814 563.738 248.698 527.622ZM384.512 584.384C435.573 584.467 483.57 604.39 519.686 640.506C555.802 676.622 575.725 724.612 575.808 775.68C470.41 775.501 384.691 689.782 384.512 584.384ZM576.448 776.32C681.846 776.499 767.565 862.218 767.744 967.616C716.683 967.533 668.686 947.61 632.57 911.494C596.454 875.378 576.531 827.388 576.448 776.32ZM767.744 968.256C767.565 1073.65 681.846 1159.37 576.448 1159.55C576.627 1054.15 662.346 968.435 767.744 968.256ZM384.512 968.256C435.573 968.339 483.57 988.262 519.686 1024.38C555.802 1060.49 575.725 1108.48 575.808 1159.55C470.41 1159.37 384.691 1073.65 384.512 968.256ZM576.448 1160.19C627.509 1160.28 675.506 1180.2 711.622 1216.31C747.738 1252.43 767.661 1300.42 767.744 1351.49C662.346 1351.31 576.627 1265.59 576.448 1160.19ZM384.512 1352.13C435.573 1352.21 483.57 1372.13 519.686 1408.25C555.802 1444.37 575.725 1492.36 575.808 1543.42C470.41 1543.24 384.691 1457.53 384.512 1352.13ZM191.936 1160.19C191.757 1265.59 106.038 1351.31 0.639787 1351.49C0.818927 1246.09 86.5376 1160.37 191.936 1160.19ZM0.639787 1352.13C51.7012 1352.21 99.698 1372.13 135.814 1408.25C171.93 1444.37 191.853 1492.36 191.936 1543.42C86.5376 1543.24 0.818927 1457.53 0.639787 1352.13ZM248.698 1679.24C212.582 1643.12 192.659 1595.13 192.576 1544.06C297.974 1544.24 383.693 1629.96 383.872 1735.36C332.811 1735.28 284.814 1715.35 248.698 1679.24ZM384.512 1735.36C384.691 1629.96 470.41 1544.24 575.808 1544.06C575.629 1649.46 489.91 1735.18 384.512 1735.36ZM576.448 1543.42C576.627 1438.03 662.346 1352.31 767.744 1352.13C767.565 1457.53 681.846 1543.24 576.448 1543.42ZM768.384 1352.13C819.445 1352.21 867.442 1372.13 903.558 1408.25C939.674 1444.37 959.597 1492.36 959.68 1543.42C854.282 1543.24 768.563 1457.53 768.384 1352.13ZM768.384 1735.36C768.563 1629.96 854.282 1544.24 959.68 1544.06C959.501 1649.46 873.782 1735.18 768.384 1735.36ZM1016.44 1679.24C980.326 1643.12 960.403 1595.13 960.32 1544.06C1065.72 1544.24 1151.44 1629.96 1151.62 1735.36C1100.55 1735.28 1052.56 1715.35 1016.44 1679.24ZM1152.26 1735.36C1152.44 1629.96 1238.15 1544.24 1343.55 1544.06C1343.37 1649.46 1257.65 1735.18 1152.26 1735.36ZM1344.19 1544.06C1449.59 1544.24 1535.31 1629.96 1535.49 1735.36C1484.43 1735.28 1436.43 1715.35 1400.31 1679.24C1364.2 1643.12 1344.28 1595.13 1344.19 1544.06ZM1536.13 1735.36C1536.31 1629.96 1622.03 1544.24 1727.42 1544.06C1727.24 1649.46 1641.53 1735.18 1536.13 1735.36ZM1919.36 1735.36C1813.96 1735.18 1728.24 1649.46 1728.06 1544.06C1833.46 1544.24 1919.18 1629.96 1919.36 1735.36ZM1727.42 1543.42C1622.03 1543.24 1536.31 1457.53 1536.13 1352.13C1641.53 1352.31 1727.24 1438.03 1727.42 1543.42ZM1919.36 1351.49C1813.96 1351.31 1728.24 1265.59 1728.06 1160.19C1833.46 1160.37 1919.18 1246.09 1919.36 1351.49ZM1919.36 584.384C1919.18 689.782 1833.46 775.501 1728.06 775.68C1728.24 670.282 1813.96 584.563 1919.36 584.384ZM1536.13 584.384C1641.53 584.563 1727.24 670.282 1727.42 775.68C1622.03 775.501 1536.31 689.782 1536.13 584.384ZM1728.06 776.32C1833.46 776.499 1919.18 862.218 1919.36 967.616C1813.96 967.437 1728.24 881.718 1728.06 776.32ZM1919.36 968.256C1919.18 1073.65 1833.46 1159.37 1728.06 1159.55C1728.24 1054.15 1813.96 968.435 1919.36 968.256ZM1727.42 1160.19C1727.24 1265.59 1641.53 1351.31 1536.13 1351.49C1536.31 1246.09 1622.03 1160.37 1727.42 1160.19ZM1535.49 1351.49C1430.09 1351.31 1344.37 1265.59 1344.19 1160.19C1449.59 1160.37 1535.31 1246.09 1535.49 1351.49ZM1343.55 1159.55C1238.15 1159.37 1152.44 1073.65 1152.26 968.256C1203.32 968.339 1251.31 988.262 1287.43 1024.38C1323.55 1060.49 1343.47 1108.48 1343.55 1159.55ZM1152.26 967.616C1152.44 862.218 1238.15 776.499 1343.55 776.32C1343.37 881.718 1257.65 967.437 1152.26 967.616ZM1535.49 967.616C1484.43 967.533 1436.43 947.61 1400.31 911.494C1364.2 875.378 1344.28 827.388 1344.19 776.32C1449.59 776.499 1535.31 862.218 1535.49 967.616ZM1343.55 775.68C1238.15 775.501 1152.44 689.782 1152.26 584.384C1203.32 584.467 1251.31 604.39 1287.43 640.506C1323.55 676.622 1343.47 724.612 1343.55 775.68ZM1152.26 583.744C1152.44 478.346 1238.15 392.627 1343.55 392.448C1343.37 497.846 1257.65 583.565 1152.26 583.744ZM1344.19 391.808C1344.37 286.41 1430.09 200.691 1535.49 200.512C1535.31 305.91 1449.59 391.629 1344.19 391.808ZM1536.13 199.872C1536.31 94.4736 1622.03 8.75494 1727.42 8.57581C1727.24 113.974 1641.53 199.693 1536.13 199.872ZM1728.06 391.808C1728.24 286.41 1813.96 200.691 1919.36 200.512C1919.18 305.91 1833.46 391.629 1728.06 391.808ZM1919.36 199.872C1813.96 199.693 1728.24 113.974 1728.06 8.57581C1833.46 8.75494 1919.18 94.4736 1919.36 199.872ZM1728.06 7.93602C1728.24 -97.4624 1813.96 -183.181 1919.36 -183.36C1919.18 -77.9617 1833.46 7.75688 1728.06 7.93602Z" fill="white"/>
<path d="M768.384 1543.42H768.064C716.709 1543.42 668.431 1563.42 632.116 1599.73C595.802 1636.04 575.809 1684.32 575.809 1735.68V1736H576.128C627.484 1736 675.762 1716 712.077 1679.69C748.391 1643.38 768.384 1595.1 768.384 1543.74V1543.42ZM576.448 1735.36C576.628 1629.96 662.346 1544.24 767.745 1544.06C767.565 1649.46 681.847 1735.18 576.448 1735.36Z" fill="white"/>
<path d="M0.319893 1543.42H0V1543.74C0 1595.1 19.9997 1643.38 56.3076 1679.69C92.6219 1716.01 140.9 1736 192.256 1736H192.576V1735.68C192.576 1684.32 172.576 1636.05 136.268 1599.73C99.9539 1563.42 51.6756 1543.42 0.319893 1543.42ZM56.7619 1679.24C20.6459 1643.12 0.722959 1595.13 0.639787 1544.06C106.038 1544.24 191.757 1629.96 191.936 1735.36C140.875 1735.28 92.8778 1715.35 56.7619 1679.24Z" fill="white"/>
<path d="M191.942 967.616C140.708 967.706 92.5515 987.693 56.314 1023.92C19.9997 1060.24 0 1108.52 0 1159.87V1160.19H0.319893C51.6756 1160.19 99.9539 1140.19 136.268 1103.88C169.972 1070.18 189.614 1026.16 192.256 978.947C194.905 1026.16 214.54 1070.18 248.244 1103.88C281.948 1137.59 325.965 1157.23 373.181 1159.87C325.965 1162.52 281.948 1182.16 248.244 1215.86C212.006 1252.1 192.019 1300.25 191.936 1351.49V1352.13C192.019 1403.36 212.006 1451.52 248.244 1487.76C284.558 1524.07 332.836 1544.06 384.192 1544.06H384.512V1543.74C384.512 1492.39 364.512 1444.11 328.204 1407.8C294.5 1374.09 250.483 1354.45 203.267 1351.81C250.483 1349.16 294.5 1329.52 328.204 1295.82C361.908 1262.12 381.55 1218.09 384.192 1170.88C386.841 1218.09 406.476 1262.11 440.18 1295.82C476.494 1332.13 524.772 1352.13 576.128 1352.13H576.448V1351.81C576.448 1300.45 556.448 1252.17 520.14 1215.86C483.903 1179.62 435.746 1159.64 384.512 1159.55C384.429 1108.31 364.442 1060.16 328.204 1023.92C294.5 990.22 250.483 970.578 203.267 967.936C250.483 965.287 294.5 945.652 328.204 911.948C361.908 878.244 381.55 834.221 384.192 787.004C386.841 834.221 406.476 878.238 440.18 911.948C476.494 948.263 524.772 968.256 576.128 968.256H576.448V967.936C576.448 916.58 556.448 868.302 520.14 831.988C483.903 795.75 435.746 775.763 384.512 775.68C384.429 724.44 364.442 676.289 328.204 640.052C291.89 603.737 243.612 583.744 192.256 583.744H191.936V584.064C191.936 635.42 211.936 683.698 248.244 720.012C281.948 753.716 325.965 773.358 373.181 776C325.965 778.649 281.948 798.284 248.244 831.988C212.006 868.225 192.019 916.382 191.936 967.616H191.942ZM0.639787 1159.55C0.818927 1054.15 86.5376 968.435 191.936 968.256C191.757 1073.65 106.038 1159.37 0.639787 1159.55ZM383.872 1543.42C278.474 1543.25 192.755 1457.53 192.576 1352.13C243.637 1352.21 291.634 1372.13 327.75 1408.25C363.866 1444.37 383.789 1492.36 383.872 1543.42ZM192.576 1351.49C192.755 1246.09 278.474 1160.37 383.872 1160.19C383.693 1265.59 297.974 1351.31 192.576 1351.49ZM575.808 1351.49C524.747 1351.41 476.75 1331.48 440.634 1295.37C404.518 1259.25 384.595 1211.26 384.512 1160.19C489.91 1160.37 575.629 1246.09 575.808 1351.49ZM383.872 1159.55C278.474 1159.37 192.755 1073.65 192.576 968.256C243.637 968.339 291.634 988.262 327.75 1024.38C363.866 1060.49 383.789 1108.48 383.872 1159.55ZM575.808 967.616C524.747 967.533 476.75 947.61 440.634 911.494C404.518 875.378 384.595 827.388 384.512 776.32C489.91 776.499 575.629 862.218 575.808 967.616ZM192.576 584.384C243.637 584.467 291.634 604.39 327.75 640.506C363.866 676.622 383.789 724.612 383.872 775.68C278.474 775.501 192.755 689.782 192.576 584.384ZM383.872 776.32C383.693 881.718 297.974 967.437 192.576 967.616C192.755 862.218 278.474 776.499 383.872 776.32Z" fill="white"/>
<path d="M1783.73 448.116C1750.03 481.82 1730.39 525.837 1727.74 573.053C1725.09 525.837 1705.46 481.82 1671.76 448.116C1638.05 414.412 1594.03 394.77 1546.82 392.128C1594.03 389.479 1638.05 369.844 1671.76 336.14C1708.07 299.826 1728.06 251.548 1728.06 200.192V199.872H1727.74C1676.39 199.872 1628.11 219.872 1591.8 256.18C1555.48 292.488 1535.57 340.574 1535.49 391.808C1484.25 391.898 1436.1 411.885 1399.86 448.116C1363.62 484.353 1343.63 532.51 1343.55 583.744V584.384C1343.63 635.618 1363.62 683.775 1399.86 720.012C1436.1 756.25 1484.25 776.237 1535.49 776.32C1535.57 827.554 1555.56 875.711 1591.8 911.948C1625.5 945.652 1669.52 965.294 1716.73 967.936C1669.52 970.585 1625.5 990.22 1591.8 1023.92C1558.09 1057.63 1538.45 1101.65 1535.81 1148.86C1533.16 1101.65 1513.52 1057.63 1479.82 1023.92C1443.51 987.609 1395.23 967.616 1343.87 967.616H1343.55V967.936C1343.55 1019.29 1363.55 1067.57 1399.86 1103.88C1436.1 1140.12 1484.25 1160.11 1535.49 1160.19H1536.13C1587.36 1160.11 1635.52 1140.12 1671.76 1103.88C1707.99 1067.65 1727.98 1019.49 1728.06 968.256V967.616C1727.98 916.382 1707.99 868.225 1671.76 831.988C1635.52 795.75 1587.36 775.763 1536.13 775.68C1536.04 724.446 1516.06 676.289 1479.82 640.052C1446.12 606.348 1402.1 586.706 1354.88 584.064C1402.1 581.415 1446.12 561.78 1479.82 528.076C1513.52 494.372 1533.17 450.355 1535.81 403.139C1538.46 450.355 1558.09 494.372 1591.8 528.076C1628.03 564.314 1676.19 584.301 1727.42 584.384H1728.06C1779.3 584.301 1827.45 564.314 1863.69 528.076C1899.93 491.839 1920 443.484 1920 392.128V391.808H1919.68C1868.32 391.808 1820.05 411.808 1783.73 448.116ZM1727.42 200.512C1727.24 305.91 1641.53 391.629 1536.13 391.808C1536.31 286.41 1622.03 200.691 1727.42 200.512ZM1344.19 968.256C1449.59 968.435 1535.31 1054.15 1535.49 1159.55C1484.43 1159.47 1436.43 1139.55 1400.31 1103.43C1364.2 1067.31 1344.27 1019.32 1344.19 968.256ZM1536.13 1159.55C1536.31 1054.15 1622.03 968.435 1727.42 968.256C1727.24 1073.65 1641.53 1159.37 1536.13 1159.55ZM1727.42 967.616C1622.03 967.437 1536.31 881.718 1536.13 776.32C1641.53 776.499 1727.24 862.218 1727.42 967.616ZM1535.49 775.68C1484.43 775.597 1436.43 755.674 1400.31 719.558C1364.2 683.442 1344.27 635.452 1344.19 584.384C1449.59 584.563 1535.31 670.282 1535.49 775.68ZM1344.19 583.744C1344.37 478.346 1430.09 392.627 1535.49 392.448C1535.31 497.846 1449.59 583.565 1344.19 583.744ZM1536.13 392.448C1641.53 392.627 1727.24 478.346 1727.42 583.744C1622.03 583.565 1536.31 497.846 1536.13 392.448ZM1728.06 583.744C1728.24 478.346 1813.96 392.627 1919.36 392.448C1919.18 497.846 1833.46 583.565 1728.06 583.744Z" fill="white"/>
<path d="M1343.87 1351.49H1343.55V1351.81C1343.55 1403.16 1363.55 1451.44 1399.86 1487.76C1436.17 1524.07 1484.45 1544.06 1535.81 1544.06H1536.13V1543.74C1536.13 1492.39 1516.13 1444.11 1479.82 1407.8C1443.51 1371.48 1395.23 1351.49 1343.87 1351.49ZM1344.19 1352.13C1449.59 1352.31 1535.31 1438.03 1535.49 1543.42C1430.09 1543.25 1344.37 1457.53 1344.19 1352.13Z" fill="white"/>
<path d="M1727.74 1351.49H1727.42V1351.81C1727.42 1403.16 1747.42 1451.44 1783.73 1487.76C1820.04 1524.07 1868.32 1544.06 1919.68 1544.06H1920V1543.74C1920 1492.39 1900 1444.11 1863.69 1407.8C1827.38 1371.48 1779.1 1351.49 1727.74 1351.49ZM1728.06 1352.13C1833.46 1352.31 1919.18 1438.03 1919.36 1543.42C1813.96 1543.25 1728.24 1457.53 1728.06 1352.13Z" fill="white"/>
<path d="M191.942 200.505C192.026 251.74 212.013 299.896 248.25 336.134C284.488 372.371 332.644 392.358 383.878 392.441C383.962 443.682 403.949 491.832 440.186 528.07C476.424 564.307 524.58 584.294 575.814 584.378H576.454C627.688 584.294 675.845 564.307 712.083 528.07C745.787 494.366 765.428 450.342 768.07 403.126C770.719 450.342 790.354 494.359 824.058 528.07C857.762 561.774 901.779 581.415 948.996 584.058C901.779 586.706 857.762 606.341 824.058 640.045C787.821 676.283 767.834 724.44 767.75 775.674V776.314C767.834 827.548 787.821 875.704 824.058 911.942C860.296 948.179 908.452 968.166 959.686 968.25C959.77 1019.49 979.757 1067.64 1015.99 1103.88C1049.7 1137.58 1093.72 1157.22 1140.93 1159.87C1093.72 1162.51 1049.7 1182.15 1015.99 1215.85C982.29 1249.56 962.649 1293.57 960.006 1340.79C957.358 1293.57 937.723 1249.56 904.019 1215.85C867.704 1179.54 819.426 1159.55 768.07 1159.55H767.75V1159.87C767.75 1211.22 787.75 1259.5 824.058 1295.81C860.296 1332.05 908.452 1352.04 959.686 1352.12C959.77 1403.36 979.757 1451.51 1015.99 1487.75C1052.31 1524.06 1100.59 1544.06 1151.94 1544.06H1152.26V1543.74C1152.26 1492.38 1132.26 1444.1 1095.95 1407.79C1062.25 1374.09 1018.23 1354.44 971.017 1351.8C1018.23 1349.15 1062.25 1329.52 1095.95 1295.81C1132.19 1259.58 1152.18 1211.42 1152.26 1160.19V1159.55C1152.18 1108.31 1132.19 1060.15 1095.95 1023.92C1062.25 990.214 1018.23 970.572 971.017 967.93C1018.23 965.281 1062.25 945.646 1095.95 911.942C1132.27 875.628 1152.26 827.349 1152.26 775.994V775.674H1151.94C1100.59 775.674 1052.31 795.674 1015.99 831.981C982.29 865.685 962.649 909.703 960.006 956.919C957.358 909.703 937.723 865.685 904.019 831.981C870.315 798.277 826.297 778.636 779.081 775.994C826.297 773.345 870.315 753.71 904.019 720.006C940.256 683.768 960.243 635.612 960.326 584.378C1011.56 584.288 1059.72 564.301 1095.95 528.07C1132.19 491.832 1152.18 443.676 1152.26 392.441V391.802C1152.18 340.568 1132.19 292.411 1095.95 256.173C1062.25 222.469 1018.23 202.828 971.017 200.186C1018.23 197.537 1062.25 177.902 1095.95 144.198C1129.66 110.494 1149.3 66.4765 1151.94 19.2603C1154.59 66.4765 1174.23 110.494 1207.93 144.198C1244.17 180.435 1292.32 200.422 1343.56 200.505H1344.2C1395.43 200.422 1443.59 180.435 1479.83 144.198C1516.06 107.96 1536.05 59.8035 1536.13 8.56941C1587.37 8.48625 1635.53 -11.5007 1671.76 -47.7382C1708 -83.9757 1728.07 -132.331 1728.07 -183.687V-184H1727.75C1676.39 -184 1628.12 -164 1591.8 -127.692C1555.49 -91.3845 1535.58 -43.2981 1535.49 7.93604C1484.26 8.01921 1436.1 28.0061 1399.87 64.2437C1366.16 97.9476 1346.52 141.965 1343.88 189.181C1341.23 141.965 1321.59 97.9476 1287.89 64.2437C1251.65 28.0061 1203.5 8.01921 1152.26 7.93604H1151.62C1100.39 8.01921 1052.23 28.0061 1015.99 64.2437C982.29 97.9476 962.649 141.971 960.006 189.188C957.358 141.971 937.723 97.954 904.019 64.2437C870.315 30.5397 826.297 10.8983 779.081 8.25592C826.297 5.60721 870.315 -14.0278 904.019 -47.7318C940.333 -84.0461 960.326 -132.324 960.326 -183.68V-184H960.006C908.651 -184 860.372 -164 824.058 -127.692C787.821 -91.4548 767.834 -43.2981 767.75 7.93604V8.57582C767.834 59.81 787.821 107.967 824.058 144.204C860.296 180.442 908.452 200.429 959.686 200.512C959.77 251.752 979.757 299.903 1015.99 336.14C1049.7 369.844 1093.72 389.486 1140.93 392.128C1093.72 394.777 1049.7 414.412 1015.99 448.116C982.29 481.82 962.649 525.837 960.006 573.053C957.358 525.837 937.723 481.82 904.019 448.116C867.781 411.878 819.624 391.891 768.39 391.808H767.75C716.516 391.891 668.36 411.878 632.122 448.116C598.418 481.82 578.777 525.837 576.134 573.053C573.486 525.837 553.851 481.82 520.147 448.116C486.443 414.412 442.425 394.77 395.209 392.128C442.425 389.479 486.443 369.844 520.147 336.14C556.461 299.826 576.454 251.548 576.454 200.192V199.872H576.134C524.779 199.872 476.5 219.872 440.186 256.18C406.482 289.884 386.841 333.907 384.198 381.124C381.55 333.907 361.915 289.89 328.211 256.18C291.973 219.942 243.816 199.955 192.582 199.872C192.499 148.638 172.512 100.481 136.275 64.2437C99.9539 27.9358 51.6756 7.93604 0.319893 7.93604H0V8.25592C0 59.6116 19.9997 107.89 56.3076 144.204C92.5452 180.442 140.702 200.429 191.936 200.512L191.942 200.505ZM824.512 1295.36C788.396 1259.24 768.473 1211.25 768.39 1160.19C873.789 1160.36 959.507 1246.08 959.686 1351.48C908.625 1351.4 860.628 1331.48 824.512 1295.36ZM1151.62 1543.42C1046.22 1543.24 960.505 1457.52 960.326 1352.12C1011.39 1352.2 1059.38 1372.13 1095.5 1408.24C1131.62 1444.36 1151.54 1492.35 1151.62 1543.42ZM960.326 1351.48C960.505 1246.08 1046.22 1160.36 1151.62 1160.19C1151.44 1265.58 1065.72 1351.3 960.326 1351.48ZM1151.62 1159.55C1046.22 1159.37 960.505 1073.65 960.326 968.25C1011.39 968.333 1059.38 988.256 1095.5 1024.37C1131.62 1060.49 1151.54 1108.48 1151.62 1159.55ZM1151.62 776.314C1151.44 881.712 1065.72 967.431 960.326 967.61C960.505 862.211 1046.22 776.493 1151.62 776.314ZM959.686 967.61C854.288 967.431 768.569 881.712 768.39 776.314C819.452 776.397 867.448 796.32 903.564 832.436C939.68 868.552 959.603 916.542 959.686 967.61ZM768.39 775.674C768.569 670.275 854.288 584.557 959.686 584.378C959.507 689.776 873.789 775.495 768.39 775.674ZM1727.42 -183.36C1727.24 -77.9617 1641.53 7.7569 1536.13 7.93604C1536.31 -97.4624 1622.03 -183.181 1727.42 -183.36ZM1535.49 8.57582C1535.31 113.974 1449.59 199.693 1344.19 199.872C1344.37 94.4736 1430.09 8.75496 1535.49 8.57582ZM1287.43 64.6979C1323.55 100.814 1343.47 148.804 1343.55 199.872C1238.15 199.693 1152.44 113.974 1152.26 8.57582C1203.32 8.659 1251.31 28.582 1287.43 64.6979ZM1151.62 8.57582C1151.44 113.974 1065.72 199.693 960.32 199.872C960.499 94.4736 1046.22 8.75496 1151.62 8.57582ZM959.68 -183.36C959.501 -77.9617 873.782 7.7569 768.384 7.93604C768.563 -97.4624 854.282 -183.181 959.68 -183.36ZM768.384 8.57582C819.445 8.659 867.442 28.582 903.558 64.6979C939.674 100.814 959.597 148.804 959.68 199.872C854.282 199.693 768.563 113.974 768.384 8.57582ZM960.32 200.512C1011.38 200.595 1059.38 220.518 1095.49 256.634C1131.61 292.75 1151.53 340.74 1151.62 391.808C1046.22 391.629 960.499 305.91 960.32 200.512ZM1151.62 392.448C1151.44 497.846 1065.72 583.565 960.32 583.744C960.499 478.346 1046.22 392.627 1151.62 392.448ZM959.68 583.744C908.619 583.661 860.622 563.738 824.506 527.622C788.39 491.506 768.467 443.516 768.384 392.448C873.782 392.627 959.501 478.346 959.68 583.744ZM767.744 392.448C767.565 497.846 681.846 583.565 576.448 583.744C576.627 478.346 662.346 392.627 767.744 392.448ZM575.808 583.744C470.41 583.565 384.691 497.846 384.512 392.448C435.573 392.531 483.57 412.454 519.686 448.57C555.802 484.686 575.725 532.676 575.808 583.744ZM575.808 200.512C575.629 305.91 489.91 391.629 384.512 391.808C384.691 286.41 470.41 200.691 575.808 200.512ZM327.75 256.634C363.866 292.75 383.789 340.74 383.872 391.808C278.474 391.629 192.755 305.91 192.576 200.512C243.637 200.595 291.634 220.518 327.75 256.634ZM191.936 199.872C140.875 199.789 92.8778 179.866 56.7619 143.75C20.6459 107.634 0.722959 59.6372 0.639787 8.57582C106.038 8.75496 191.757 94.4736 191.936 199.872Z" fill="white"/>
</g>
</svg>
